# xmcd CD database file
#
# Track frame offsets:
#	150
#	31115
#	62711
#	89890
#	120839
#	178933
#	203275
#	227430
#	285630
#
# Disc length: 3988 seconds
#
# Revision: 0
# Processed by: cddbd v1.5PL3 Copyright (c) Steve Scherf et al.
# Submitted via: CDex 1.51
#
DISCID=6f0f9209
DTITLE=Various Artist - Jazz and Contemporary Music Program 2001
DYEAR=2001
DGENRE=Jazz
TTITLE0=Marcus Strickland - The Snake Charmer
TTITLE1=Wayne Shorter - ESP
TTITLE2=Rodgers and Hart - Have You Met Miss Jones?
TTITLE3=Chris Conti - Nyw Kxnorb 12
TTITLE4=Blankenship and Moutot - As You Like
TTITLE5=Julio Monterrey - Blu-Dawg
TTITLE6=Kris Bauman - Taurine
TTITLE7=Danny Zamir - Poem 5
TTITLE8=King/Dearie - Inside a Silent Tear
EXTD=YEAR: 2001
EXTT0=
EXTT1=
EXTT2=
EXTT3=
EXTT4=
EXTT5=
EXTT6=
EXTT7=
EXTT8=
PLAYORDER=
